<svg width="798" height="434" xmlns="http://www.w3.org/2000/svg" xmlns:xlink="http://www.w3.org/1999/xlink" overflow="hidden"><defs><clipPath id="clip0"><rect x="812" y="460" width="128" height="94"/></clipPath><clipPath id="clip1"><rect x="812" y="460" width="128" height="94"/></clipPath><clipPath id="clip2"><rect x="812" y="217" width="128" height="95"/></clipPath><clipPath id="clip3"><rect x="812" y="217" width="128" height="95"/></clipPath></defs><g transform="translate(-241 -144)"><rect x="241" y="145" width="798" height="432" fill="#FFFFFF"/><text font-family="Segoe UI,Segoe UI_MSFontService,sans-serif" font-weight="400" font-size="27" transform="translate(284.648 274)">Text</text><text font-family="Segoe UI,Segoe UI_MSFontService,sans-serif" font-weight="400" font-size="27" transform="translate(276.116 522)">Voice</text><text font-family="Segoe UI,Segoe UI_MSFontService,sans-serif" font-weight="400" font-size="27" transform="translate(906.367 188)">AI</text><text font-family="Segoe UI,Segoe UI_MSFontService,sans-serif" font-weight="400" font-size="27" transform="translate(441.313 187)">You</text><g><g><g><path d="M438 494C438 502.837 430.837 510 422 510 413.163 510 406 502.837 406 494 406 485.163 413.163 478 422 478 430.837 478 438 485.163 438 494Z"/><path d="M454 546 454 530C454 527.6 452.8 525.2 450.8 523.6 446.4 520 440.8 517.6 435.2 516 431.2 514.8 426.8 514 422 514 417.6 514 413.2 514.8 408.8 516 403.2 517.6 397.6 520.4 393.2 523.6 391.2 525.2 390 527.6 390 530L390 546 454 546Z"/></g></g></g><g><g><g><path d="M548 507.3 554 507.3 554 516.6 548 516.6Z"/><path d="M528 507.3 534 507.3 534 516.6 528 516.6Z"/><path d="M468 507.3 474 507.3 474 516.6 468 516.6Z"/><path d="M538 502.7 544 502.7 544 521.4 538 521.4Z"/><path d="M518 502.7 524 502.7 524 521.4 518 521.4Z"/><path d="M478 502.7 484 502.7 484 521.4 478 521.4Z"/><path d="M508 498 514 498 514 526 508 526Z"/><path d="M488 493.3 494 493.3 494 530.6 488 530.6Z"/><path d="M498 484 504 484 504 540 498 540Z"/></g></g></g><g clip-path="url(#clip0)"><g clip-path="url(#clip1)"><g><path d="M85.0772 95.0878 41.4953 95.0878C36.0249 95.0878 31.5903 99.5225 31.5903 104.993 31.5903 110.463 36.0249 114.898 41.4953 114.898L85.0772 114.898C90.5475 114.898 94.9821 110.463 94.9821 104.993 94.9821 99.5225 90.5475 95.0878 85.0772 95.0878ZM44.1366 108.955C41.9484 108.955 40.1746 107.181 40.1746 104.993 40.1746 102.805 41.9484 101.031 44.1366 101.031 46.3248 101.031 48.0986 102.805 48.0986 104.993 48.0986 107.181 46.3248 108.955 44.1366 108.955ZM63.2862 108.955C61.098 108.955 59.3242 107.181 59.3242 104.993 59.3242 102.805 61.098 101.031 63.2862 101.031 65.4744 101.031 67.2482 102.805 67.2482 104.993 67.2482 107.181 65.4744 108.955 63.2862 108.955ZM82.4358 108.955C80.2476 108.955 78.4738 107.181 78.4738 104.993 78.4738 102.805 80.2476 101.031 82.4358 101.031 84.624 101.031 86.3978 102.805 86.3978 104.993 86.3978 107.181 84.624 108.955 82.4358 108.955Z" transform="matrix(1.00959 0 0 1 812 460)"/><path d="M72.412 36.9786C72.412 38.0727 71.5251 38.9596 70.431 38.9596 69.3369 38.9596 68.45 38.0727 68.45 36.9786 68.45 35.8845 69.3369 34.9976 70.431 34.9976 71.5251 34.9976 72.412 35.8845 72.412 36.9786Z" transform="matrix(1.00959 0 0 1 812 460)"/><path d="M74.7628 23.7719 66.0332 23.7719 66.0332 17.7629C68.5599 16.3041 69.4256 13.0733 67.9668 10.5467 66.508 8.02004 63.2772 7.15434 60.7505 8.61311 58.2238 10.0719 57.3582 13.3027 58.817 15.8293 59.2806 16.6324 59.9474 17.2992 60.7505 17.7629L60.7505 23.7719 52.021 23.7719C48.822 23.7792 46.2305 26.3708 46.2232 29.5697L46.2232 44.3875C46.2305 47.5864 48.822 50.178 52.021 50.1852L74.7628 50.1852C77.9617 50.178 80.5532 47.5864 80.5605 44.3875L80.5605 29.5697C80.5532 26.3708 77.9617 23.7792 74.7628 23.7719ZM56.7885 40.9406C54.6003 40.9406 52.8266 39.1668 52.8266 36.9786 52.8266 34.7904 54.6003 33.0166 56.7885 33.0166 58.9768 33.0166 60.7505 34.7904 60.7505 36.9786 60.7505 39.1668 58.9768 40.9406 56.7885 40.9406ZM69.9952 40.9406C67.807 40.9406 66.0332 39.1668 66.0332 36.9786 66.0332 34.7904 67.807 33.0166 69.9952 33.0166 72.1834 33.0166 73.9572 34.7904 73.9572 36.9786 73.9572 39.1668 72.1834 40.9406 69.9952 40.9406Z" transform="matrix(1.00959 0 0 1 812 460)"/><path d="M59.2054 36.9786C59.2054 38.0727 58.3184 38.9596 57.2244 38.9596 56.1303 38.9596 55.2434 38.0727 55.2434 36.9786 55.2434 35.8845 56.1303 34.9976 57.2244 34.9976 58.3184 34.9976 59.2054 35.8845 59.2054 36.9786Z" transform="matrix(1.00959 0 0 1 812 460)"/><path d="M97.7291 77.6814 97.7291 66.6803C97.7291 63.4053 95.0743 60.7505 91.7994 60.7505L84.5225 60.7505 84.5225 54.1472 42.2612 54.1472 42.2612 62.0712 32.3431 62.0712C31.9857 62.0712 31.6959 61.7815 31.6959 61.4241L31.6959 50.4758C36.2358 49.135 38.8292 44.3678 37.4885 39.8281 37.129 38.6109 36.5038 37.4889 35.6579 36.5428L31.6959 40.0557C32.2501 40.6584 32.5648 41.4427 32.5808 42.2612 32.5709 44.0847 31.0846 45.5549 29.2612 45.5449 27.4377 45.5349 25.9677 44.0488 25.9776 42.2253 25.9818 41.4377 26.2675 40.6776 26.7831 40.0821L22.8211 36.6088C19.7084 40.1849 20.0841 45.6071 23.6602 48.7198 24.4693 49.424 25.403 49.9704 26.4133 50.3305L26.4133 61.4241C26.4133 64.6991 29.0681 67.3539 32.3431 67.3539L42.2612 67.3539 42.2612 91.1258 84.5225 91.1258 84.5225 66.0332 91.7994 66.0332C92.1567 66.0332 92.4465 66.3229 92.4465 66.6803L92.4465 77.6814C87.9356 79.1407 85.4619 83.9804 86.9211 88.4912 87.2864 89.6201 87.8816 90.6611 88.6694 91.5484L92.6314 88.0355C92.0849 87.4364 91.7832 86.654 91.7861 85.8432 91.7877 84.0197 93.2671 82.5427 95.0906 82.5443 96.914 82.5459 98.391 84.0253 98.3895 85.8487 98.3888 86.6485 98.0979 87.4208 97.5706 88.0223L101.533 91.4956C104.657 87.9398 104.308 82.5242 100.752 79.3994 99.8727 78.6261 98.8436 78.0415 97.7291 77.6814ZM79.2398 72.6365 75.5684 72.6365C75.4407 72.6594 75.3192 72.7089 75.2118 72.7818L71.1706 76.9155 68.0934 69.6254 62.3485 81.5114 58.3205 66.0332 55.217 72.6365 48.8646 72.6365 48.8646 69.9952 53.5397 69.9952 59.0337 58.3073 63.1013 73.8647 68.2651 63.2994 72.0686 72.3064 73.3893 70.9857C73.9692 70.3988 74.745 70.0462 75.5684 69.9952L79.2398 69.9952Z" transform="matrix(1.00959 0 0 1 812 460)"/></g></g></g><g><g><g><path d="M1002 509.3 1008 509.3 1008 518.6 1002 518.6Z"/><path d="M982 509.3 988 509.3 988 518.6 982 518.6Z"/><path d="M922 509.3 928 509.3 928 518.6 922 518.6Z"/><path d="M992 504.7 998 504.7 998 523.4 992 523.4Z"/><path d="M972 504.7 978 504.7 978 523.4 972 523.4Z"/><path d="M932 504.7 938 504.7 938 523.4 932 523.4Z"/><path d="M962 500 968 500 968 528 962 528Z"/><path d="M942 495.3 948 495.3 948 532.6 942 532.6Z"/><path d="M952 486 958 486 958 542 952 542Z"/></g></g></g><g><g><g><path d="M438 250C438 258.837 430.837 266 422 266 413.163 266 406 258.837 406 250 406 241.163 413.163 234 422 234 430.837 234 438 241.163 438 250Z"/><path d="M454 302 454 286C454 283.6 452.8 281.2 450.8 279.6 446.4 276 440.8 273.6 435.2 272 431.2 270.8 426.8 270 422 270 417.6 270 413.2 270.8 408.8 272 403.2 273.6 397.6 276.4 393.2 279.6 391.2 281.2 390 283.6 390 286L390 302 454 302Z"/></g></g></g><g clip-path="url(#clip2)"><g clip-path="url(#clip3)"><g><path d="M85.8933 96 41.8933 96C36.3705 96 31.8933 100.477 31.8933 106 31.8933 111.523 36.3705 116 41.8933 116L85.8933 116C91.4161 116 95.8933 111.523 95.8933 106 95.8933 100.477 91.4161 96 85.8933 96ZM44.56 110C42.3508 110 40.56 108.209 40.56 106 40.56 103.791 42.3508 102 44.56 102 46.7692 102 48.56 103.791 48.56 106 48.56 108.209 46.7692 110 44.56 110ZM63.8933 110C61.6841 110 59.8933 108.209 59.8933 106 59.8933 103.791 61.6841 102 63.8933 102 66.1025 102 67.8933 103.791 67.8933 106 67.8933 108.209 66.1025 110 63.8933 110ZM83.2267 110C81.0175 110 79.2267 108.209 79.2267 106 79.2267 103.791 81.0175 102 83.2267 102 85.4359 102 87.2267 103.791 87.2267 106 87.2267 108.209 85.4359 110 83.2267 110Z" transform="matrix(1 0 0 1.00104 812 217)"/><path d="M73.1067 37.3333C73.1067 38.4379 72.2112 39.3333 71.1067 39.3333 70.0021 39.3333 69.1067 38.4379 69.1067 37.3333 69.1067 36.2288 70.0021 35.3333 71.1067 35.3333 72.2112 35.3333 73.1067 36.2288 73.1067 37.3333Z" transform="matrix(1 0 0 1.00104 812 217)"/><path d="M75.48 24 66.6667 24 66.6667 17.9333C69.2176 16.4605 70.0916 13.1988 68.6188 10.6479 67.146 8.09697 63.8843 7.22297 61.3333 8.69573 58.7824 10.1685 57.9084 13.4303 59.3812 15.9812 59.8493 16.792 60.5225 17.4652 61.3333 17.9333L61.3333 24 52.52 24C49.2904 24.0073 46.674 26.6237 46.6667 29.8533L46.6667 44.8133C46.674 48.0429 49.2904 50.6593 52.52 50.6667L75.48 50.6667C78.7096 50.6593 81.326 48.0429 81.3333 44.8133L81.3333 29.8533C81.326 26.6237 78.7096 24.0073 75.48 24ZM57.3333 41.3333C55.1241 41.3333 53.3333 39.5425 53.3333 37.3333 53.3333 35.1241 55.1241 33.3333 57.3333 33.3333 59.5425 33.3333 61.3333 35.1241 61.3333 37.3333 61.3333 39.5425 59.5425 41.3333 57.3333 41.3333ZM70.6667 41.3333C68.4575 41.3333 66.6667 39.5425 66.6667 37.3333 66.6667 35.1241 68.4575 33.3333 70.6667 33.3333 72.8759 33.3333 74.6667 35.1241 74.6667 37.3333 74.6667 39.5425 72.8759 41.3333 70.6667 41.3333Z" transform="matrix(1 0 0 1.00104 812 217)"/><path d="M59.7733 37.3333C59.7733 38.4379 58.8779 39.3333 57.7733 39.3333 56.6688 39.3333 55.7733 38.4379 55.7733 37.3333 55.7733 36.2288 56.6688 35.3333 57.7733 35.3333 58.8779 35.3333 59.7733 36.2288 59.7733 37.3333Z" transform="matrix(1 0 0 1.00104 812 217)"/><path d="M98.6667 78.4267 98.6667 67.32C98.6667 64.0136 95.9864 61.3333 92.68 61.3333L85.3333 61.3333 85.3333 54.6667 42.6667 54.6667 42.6667 62.6667 32.6533 62.6667C32.2925 62.6667 32 62.3741 32 62.0133L32 50.96C36.5835 49.6064 39.2017 44.7935 37.8481 40.2101 37.4852 38.9813 36.854 37.8485 36 36.8933L32 40.44C32.5595 41.0484 32.8772 41.8403 32.8933 42.6667 32.8833 44.5076 31.3828 45.9919 29.5419 45.9819 27.7009 45.9717 26.2168 44.4713 26.2268 42.6304 26.2311 41.8352 26.5195 41.0679 27.04 40.4667L23.04 36.96C19.8975 40.5704 20.2768 46.0447 23.8872 49.1872 24.704 49.8981 25.6467 50.4497 26.6667 50.8133L26.6667 62.0133C26.6667 65.3197 29.3469 68 32.6533 68L42.6667 68 42.6667 92 85.3333 92 85.3333 66.6667 92.68 66.6667C93.0408 66.6667 93.3333 66.9592 93.3333 67.32L93.3333 78.4267C88.7792 79.8999 86.2817 84.786 87.7549 89.3401 88.1237 90.4799 88.7247 91.5308 89.52 92.4267L93.52 88.88C92.9683 88.2752 92.6637 87.4853 92.6667 86.6667 92.6683 84.8257 94.1619 83.3345 96.0028 83.3361 97.8437 83.3377 99.3349 84.8313 99.3333 86.6723 99.3327 87.4797 99.0389 88.2595 98.5067 88.8667L102.507 92.3733C105.661 88.7835 105.309 83.3159 101.719 80.1611 100.831 79.3804 99.7919 78.7901 98.6667 78.4267ZM80 73.3333 76.2933 73.3333C76.1644 73.3564 76.0417 73.4064 75.9333 73.48L71.8533 77.6533 68.7467 70.2933 62.9467 82.2933 58.88 66.6667 55.7467 73.3333 49.3333 73.3333 49.3333 70.6667 54.0533 70.6667 59.6 58.8667 63.7067 74.5733 68.92 63.9067 72.76 73 74.0933 71.6667C74.6788 71.0741 75.462 70.7181 76.2933 70.6667L80 70.6667Z" transform="matrix(1 0 0 1.00104 812 217)"/></g></g></g><path d="M450 342.003 463.5 327 477 342.003 468.547 342.003 468.547 357 458.453 357 458.453 342.003Z" fill-rule="evenodd"/><path d="M392.5 367.667C392.5 362.052 397.052 357.5 402.667 357.5L525.333 357.5C530.948 357.5 535.5 362.052 535.5 367.667L535.5 408.333C535.5 413.948 530.948 418.5 525.333 418.5L402.667 418.5C397.052 418.5 392.5 413.948 392.5 408.333Z" stroke="#000000" stroke-width="3" stroke-miterlimit="8" fill="none" fill-rule="evenodd"/><text font-family="Segoe UI,Segoe UI_MSFontService,sans-serif" font-weight="400" font-size="27" transform="translate(414.777 398)">Whisper</text><rect x="458" y="418" width="10" height="27"/><path d="M614.5 244.667C614.5 239.052 619.052 234.5 624.667 234.5L747.333 234.5C752.948 234.5 757.5 239.052 757.5 244.667L757.5 285.333C757.5 290.948 752.948 295.5 747.333 295.5L624.667 295.5C619.052 295.5 614.5 290.948 614.5 285.333Z" stroke="#000000" stroke-width="3" stroke-miterlimit="8" fill="none" fill-rule="evenodd"/><text font-family="Segoe UI,Segoe UI_MSFontService,sans-serif" font-weight="400" font-size="27" transform="translate(662.166 274)">GPT</text><path d="M846.5 371.667C846.5 366.052 851.052 361.5 856.667 361.5L979.333 361.5C984.948 361.5 989.5 366.052 989.5 371.667L989.5 412.333C989.5 417.948 984.948 422.5 979.333 422.5L856.667 422.5C851.052 422.5 846.5 417.948 846.5 412.333Z" stroke="#000000" stroke-width="3" stroke-miterlimit="8" fill="none" fill-rule="evenodd"/><text font-family="Segoe UI,Segoe UI_MSFontService,sans-serif" font-weight="400" font-size="27" transform="translate(888.314 401)">gTTS</text><text font-family="Segoe UI Black,Segoe UI Black_MSFontService,sans-serif" font-weight="900" font-size="32" transform="translate(480.761 276)">ABC</text><text font-family="Segoe UI Black,Segoe UI Black_MSFontService,sans-serif" font-weight="900" font-size="32" transform="translate(935.057 276)">ABC</text><rect x="912" y="335" width="10" height="26"/><path d="M930 437.553 917 452 904 437.553 912.14 437.553 912.14 422 921.86 422 921.86 437.553Z" fill-rule="evenodd"/><path d="M771.997 251 787 264.5 771.997 278 771.997 269.547 757 269.547 757 259.453 771.997 259.453Z" fill-rule="evenodd"/><rect x="588" y="259" width="26" height="11"/><path d="M638.5 514.5C638.5 487.99 659.99 466.5 686.5 466.5 713.01 466.5 734.5 487.99 734.5 514.5 734.5 541.01 713.01 562.5 686.5 562.5 659.99 562.5 638.5 541.01 638.5 514.5Z" stroke="#000000" stroke-width="3" stroke-miterlimit="8" fill="none" fill-rule="evenodd"/><text font-family="Segoe UI,Segoe UI_MSFontService,sans-serif" font-weight="400" font-size="27" transform="translate(663.579 524)">Talk</text><path d="M622.997 500 638 513.5 622.997 527 622.997 518.547 588 518.547 588 508.453 622.997 508.453Z" fill-rule="evenodd"/><path d="M746.224 525 734 514 746.224 503 746.224 509.888 783 509.888 783 518.112 746.224 518.112Z" fill-rule="evenodd"/></g></svg>